<mxfile host="Electron" modified="2024-06-11T14:26:35.664Z" agent="Mozilla/5.0 (Windows NT 10.0; Win64; x64) AppleWebKit/537.36 (KHTML, like Gecko) draw.io/24.5.1 Chrome/124.0.6367.207 Electron/30.0.6 Safari/537.36" etag="fNj-qA6EoPwFyHRiFiwq" version="24.5.1" type="device">
  <diagram name="Page-1" id="e7e014a7-5840-1c2e-5031-d8a46d1fe8dd">
    <mxGraphModel dx="1050" dy="621" grid="1" gridSize="10" guides="1" tooltips="1" connect="1" arrows="1" fold="1" page="1" pageScale="1" pageWidth="1169" pageHeight="826" background="none" math="0" shadow="0">
      <root>
        <mxCell id="0" />
        <mxCell id="1" parent="0" />
        <mxCell id="2" value="Cliente" style="swimlane;whiteSpace=wrap" parent="1" vertex="1">
          <mxGeometry x="164.5" y="120" width="280" height="1230" as="geometry" />
        </mxCell>
        <mxCell id="5" value="" style="ellipse;shape=startState;fillColor=#000000;strokeColor=#000000;" parent="2" vertex="1">
          <mxGeometry x="100" y="40" width="30" height="30" as="geometry" />
        </mxCell>
        <mxCell id="7" value="Solicitar Producto" style="rounded=1;strokeColor=#000000;" parent="2" vertex="1">
          <mxGeometry x="60" y="92" width="110" height="28" as="geometry" />
        </mxCell>
        <mxCell id="8" value="Llenar formulario &#xa;Pedido" style="rounded=1;strokeColor=#000000;" parent="2" vertex="1">
          <mxGeometry x="60" y="190" width="110" height="40" as="geometry" />
        </mxCell>
        <mxCell id="10" value="Realizar Pedido" style="rounded=1;strokeColor=#000000;" parent="2" vertex="1">
          <mxGeometry x="60" y="312" width="110" height="28" as="geometry" />
        </mxCell>
        <mxCell id="11" value="" style="endArrow=open;strokeColor=#000000;endFill=1;rounded=0;entryX=0.5;entryY=0;entryDx=0;entryDy=0;" parent="2" source="8" target="Z2fq6VVGMIXrVIdvkk49-69" edge="1">
          <mxGeometry relative="1" as="geometry" />
        </mxCell>
        <mxCell id="Z2fq6VVGMIXrVIdvkk49-42" value="Selecciona Productos" style="rounded=1;strokeColor=#000000;" parent="2" vertex="1">
          <mxGeometry x="60" y="142" width="120" height="30" as="geometry" />
        </mxCell>
        <mxCell id="Z2fq6VVGMIXrVIdvkk49-55" value="" style="endArrow=open;strokeColor=#000000;endFill=1;rounded=0;exitX=0.466;exitY=1.033;exitDx=0;exitDy=0;exitPerimeter=0;entryX=0.5;entryY=0;entryDx=0;entryDy=0;" parent="2" source="Z2fq6VVGMIXrVIdvkk49-42" target="8" edge="1">
          <mxGeometry relative="1" as="geometry">
            <mxPoint x="125" y="292" as="sourcePoint" />
            <mxPoint x="125" y="312" as="targetPoint" />
          </mxGeometry>
        </mxCell>
        <mxCell id="Z2fq6VVGMIXrVIdvkk49-64" value="Recibe la notificacion" style="rounded=1;strokeColor=#000000;" parent="2" vertex="1">
          <mxGeometry x="87.75" y="790" width="124.5" height="28" as="geometry" />
        </mxCell>
        <mxCell id="Z2fq6VVGMIXrVIdvkk49-69" value="Selecciona Metodo&#xa; de Pago" style="rounded=1;strokeColor=#000000;" parent="2" vertex="1">
          <mxGeometry x="60" y="253" width="110" height="40" as="geometry" />
        </mxCell>
        <mxCell id="Z2fq6VVGMIXrVIdvkk49-77" value="Recibe el pedido" style="rounded=1;strokeColor=#000000;" parent="2" vertex="1">
          <mxGeometry x="102.75" y="930" width="114.5" height="28" as="geometry" />
        </mxCell>
        <mxCell id="Z2fq6VVGMIXrVIdvkk49-78" value="Realiza Pago" style="rounded=1;strokeColor=#000000;" parent="2" vertex="1">
          <mxGeometry x="102.75" y="980" width="114.5" height="28" as="geometry" />
        </mxCell>
        <mxCell id="Z2fq6VVGMIXrVIdvkk49-83" value="Recibe Factura" style="rounded=1;strokeColor=#000000;" parent="2" vertex="1">
          <mxGeometry x="100" y="1130" width="124.5" height="38" as="geometry" />
        </mxCell>
        <mxCell id="Z2fq6VVGMIXrVIdvkk49-84" value="" style="ellipse;html=1;shape=endState;fillColor=#000000;strokeColor=#000000;" parent="2" vertex="1">
          <mxGeometry x="147.25" y="1190" width="30" height="30" as="geometry" />
        </mxCell>
        <mxCell id="Z2fq6VVGMIXrVIdvkk49-85" value="" style="endArrow=open;strokeColor=#000000;endFill=1;rounded=0;exitX=0.5;exitY=1;exitDx=0;exitDy=0;entryX=0.5;entryY=0;entryDx=0;entryDy=0;" parent="2" source="5" target="7" edge="1">
          <mxGeometry relative="1" as="geometry">
            <mxPoint x="126" y="213" as="sourcePoint" />
            <mxPoint x="115.5" y="90" as="targetPoint" />
          </mxGeometry>
        </mxCell>
        <mxCell id="Z2fq6VVGMIXrVIdvkk49-86" value="" style="endArrow=open;strokeColor=#000000;endFill=1;rounded=0;entryX=0.5;entryY=0;entryDx=0;entryDy=0;exitX=0.5;exitY=1;exitDx=0;exitDy=0;" parent="2" source="Z2fq6VVGMIXrVIdvkk49-69" target="10" edge="1">
          <mxGeometry relative="1" as="geometry">
            <mxPoint x="125" y="240" as="sourcePoint" />
            <mxPoint x="125" y="263" as="targetPoint" />
          </mxGeometry>
        </mxCell>
        <mxCell id="Z2fq6VVGMIXrVIdvkk49-90" value="Recibe opciones de&#xa;Distribuidor" style="rounded=1;strokeColor=#000000;" parent="2" vertex="1">
          <mxGeometry x="87.75" y="615" width="120" height="40" as="geometry" />
        </mxCell>
        <mxCell id="Z2fq6VVGMIXrVIdvkk49-96" value="Selecciona Distribuidor" style="rounded=1;strokeColor=#000000;" parent="2" vertex="1">
          <mxGeometry x="77.75" y="676" width="137.75" height="30" as="geometry" />
        </mxCell>
        <mxCell id="Z2fq6VVGMIXrVIdvkk49-99" value="" style="edgeStyle=elbowEdgeStyle;elbow=horizontal;verticalAlign=bottom;endArrow=open;endSize=8;strokeColor=#000000;endFill=1;rounded=0;exitX=0.5;exitY=1;exitDx=0;exitDy=0;entryX=0.5;entryY=0;entryDx=0;entryDy=0;" parent="2" source="Z2fq6VVGMIXrVIdvkk49-90" target="Z2fq6VVGMIXrVIdvkk49-96" edge="1">
          <mxGeometry x="-1399.5" y="-456" as="geometry">
            <mxPoint x="429.5" y="450" as="targetPoint" />
            <mxPoint x="430.5" y="418" as="sourcePoint" />
          </mxGeometry>
        </mxCell>
        <mxCell id="Z2fq6VVGMIXrVIdvkk49-111" value="Recibe notificación&#xa;de llegada" style="rounded=1;strokeColor=#000000;" parent="2" vertex="1">
          <mxGeometry x="100" y="865" width="120" height="40" as="geometry" />
        </mxCell>
        <mxCell id="Z2fq6VVGMIXrVIdvkk49-112" value="" style="endArrow=open;strokeColor=#000000;endFill=1;rounded=0;entryX=0.5;entryY=0;entryDx=0;entryDy=0;exitX=0.5;exitY=1;exitDx=0;exitDy=0;" parent="2" source="Z2fq6VVGMIXrVIdvkk49-111" target="Z2fq6VVGMIXrVIdvkk49-77" edge="1">
          <mxGeometry relative="1" as="geometry">
            <mxPoint x="438.5" y="910" as="sourcePoint" />
            <mxPoint x="438.5" y="930" as="targetPoint" />
          </mxGeometry>
        </mxCell>
        <mxCell id="Z2fq6VVGMIXrVIdvkk49-113" value="" style="endArrow=open;strokeColor=#000000;endFill=1;rounded=0;entryX=0.5;entryY=0;entryDx=0;entryDy=0;exitX=0.5;exitY=1;exitDx=0;exitDy=0;" parent="2" source="Z2fq6VVGMIXrVIdvkk49-77" target="Z2fq6VVGMIXrVIdvkk49-78" edge="1">
          <mxGeometry relative="1" as="geometry">
            <mxPoint x="170" y="915" as="sourcePoint" />
            <mxPoint x="170" y="940" as="targetPoint" />
          </mxGeometry>
        </mxCell>
        <mxCell id="Z2fq6VVGMIXrVIdvkk49-121" value="" style="endArrow=open;strokeColor=#000000;endFill=1;rounded=0;entryX=0.5;entryY=0;entryDx=0;entryDy=0;exitX=0.5;exitY=1;exitDx=0;exitDy=0;" parent="2" source="Z2fq6VVGMIXrVIdvkk49-83" target="Z2fq6VVGMIXrVIdvkk49-84" edge="1">
          <mxGeometry relative="1" as="geometry">
            <mxPoint x="170" y="915" as="sourcePoint" />
            <mxPoint x="170" y="940" as="targetPoint" />
          </mxGeometry>
        </mxCell>
        <mxCell id="3" value="Sistema" style="swimlane;whiteSpace=wrap;startSize=23;" parent="1" vertex="1">
          <mxGeometry x="445" y="120" width="280" height="1230" as="geometry" />
        </mxCell>
        <mxCell id="15" value="Cursar Pedido" style="rounded=1;strokeColor=#000000;" parent="3" vertex="1">
          <mxGeometry x="88.25" y="91" width="104.5" height="29" as="geometry" />
        </mxCell>
        <mxCell id="16" value="Recibe informacion&#xa;del pedido" style="rounded=1;strokeColor=#000000;" parent="3" vertex="1">
          <mxGeometry x="82.75" y="306" width="114.5" height="40" as="geometry" />
        </mxCell>
        <mxCell id="Z2fq6VVGMIXrVIdvkk49-41" value="Presentar Productos" style="rounded=1;strokeColor=#000000;" parent="3" vertex="1">
          <mxGeometry x="81.75" y="142" width="120" height="30" as="geometry" />
        </mxCell>
        <mxCell id="Z2fq6VVGMIXrVIdvkk49-49" value="Notifica al usuario" style="rounded=1;strokeColor=#000000;" parent="3" vertex="1">
          <mxGeometry x="87.25" y="790" width="114.5" height="28" as="geometry" />
        </mxCell>
        <mxCell id="Z2fq6VVGMIXrVIdvkk49-53" value="" style="edgeStyle=elbowEdgeStyle;elbow=horizontal;verticalAlign=bottom;endArrow=open;endSize=8;strokeColor=#000000;endFill=1;rounded=0;exitX=0.5;exitY=1;exitDx=0;exitDy=0;entryX=0.5;entryY=0;entryDx=0;entryDy=0;" parent="3" source="15" target="Z2fq6VVGMIXrVIdvkk49-41" edge="1">
          <mxGeometry x="-345" y="-88" as="geometry">
            <mxPoint x="96" y="127" as="targetPoint" />
            <mxPoint x="-100" y="127" as="sourcePoint" />
          </mxGeometry>
        </mxCell>
        <mxCell id="Z2fq6VVGMIXrVIdvkk49-56" value="" style="edgeStyle=elbowEdgeStyle;elbow=horizontal;verticalAlign=bottom;endArrow=open;endSize=8;strokeColor=#000000;endFill=1;rounded=0;exitX=0.5;exitY=1;exitDx=0;exitDy=0;entryX=0.5;entryY=0;entryDx=0;entryDy=0;" parent="3" source="16" target="Z2fq6VVGMIXrVIdvkk49-68" edge="1">
          <mxGeometry x="-790" y="-216" as="geometry">
            <mxPoint x="152" y="182" as="targetPoint" />
            <mxPoint x="151" y="152" as="sourcePoint" />
          </mxGeometry>
        </mxCell>
        <mxCell id="Z2fq6VVGMIXrVIdvkk49-65" value="Cambia Estado de &#xa;Pedido" style="rounded=1;strokeColor=#000000;" parent="3" vertex="1">
          <mxGeometry x="82.75" y="730" width="124.5" height="38" as="geometry" />
        </mxCell>
        <mxCell id="Z2fq6VVGMIXrVIdvkk49-68" value="Verifica distribuidores &#xa;disponibles" style="rounded=1;strokeColor=#000000;" parent="3" vertex="1">
          <mxGeometry x="75" y="370" width="129" height="38" as="geometry" />
        </mxCell>
        <mxCell id="Z2fq6VVGMIXrVIdvkk49-75" value="Recibe Notificación" style="rounded=1;fontStyle=1;strokeColor=#000000;" parent="3" vertex="1">
          <mxGeometry x="87.25" y="870" width="121.62" height="30" as="geometry" />
        </mxCell>
        <mxCell id="Z2fq6VVGMIXrVIdvkk49-76" value="Cambia Estado de &#xa;Pedido" style="rounded=1;strokeColor=#000000;" parent="3" vertex="1">
          <mxGeometry x="87.25" y="1030" width="124.5" height="38" as="geometry" />
        </mxCell>
        <mxCell id="Z2fq6VVGMIXrVIdvkk49-81" value="Realiza Facturacion" style="rounded=1;strokeColor=#000000;" parent="3" vertex="1">
          <mxGeometry x="88.38" y="1100" width="124.5" height="38" as="geometry" />
        </mxCell>
        <mxCell id="Z2fq6VVGMIXrVIdvkk49-82" value="Notifica al usuario" style="rounded=1;strokeColor=#000000;" parent="3" vertex="1">
          <mxGeometry x="88.38" y="1160" width="124.5" height="38" as="geometry" />
        </mxCell>
        <mxCell id="Z2fq6VVGMIXrVIdvkk49-88" value="Presenta Distribuidores&#xa;Disponibles" style="rounded=1;strokeColor=#000000;" parent="3" vertex="1">
          <mxGeometry x="70.63" y="620" width="142.25" height="30" as="geometry" />
        </mxCell>
        <mxCell id="Z2fq6VVGMIXrVIdvkk49-89" value="" style="edgeStyle=elbowEdgeStyle;elbow=horizontal;verticalAlign=bottom;endArrow=open;endSize=8;strokeColor=#000000;endFill=1;rounded=0;exitX=0.5;exitY=1;exitDx=0;exitDy=0;" parent="3" source="Z2fq6VVGMIXrVIdvkk49-68" edge="1">
          <mxGeometry x="-1235" y="-336" as="geometry">
            <mxPoint x="139" y="440" as="targetPoint" />
            <mxPoint x="150" y="356" as="sourcePoint" />
          </mxGeometry>
        </mxCell>
        <mxCell id="Z2fq6VVGMIXrVIdvkk49-92" value="Presenta Solicitud de&#xa;pedido" style="rounded=1;strokeColor=#000000;" parent="3" vertex="1">
          <mxGeometry x="73.92999999999999" y="440" width="131.12" height="40" as="geometry" />
        </mxCell>
        <mxCell id="Z2fq6VVGMIXrVIdvkk49-100" value="Envía notificación de&#xa;confirmación de distribuidor" style="rounded=1;strokeColor=#000000;" parent="3" vertex="1">
          <mxGeometry x="64.25" y="671" width="155" height="40" as="geometry" />
        </mxCell>
        <mxCell id="Z2fq6VVGMIXrVIdvkk49-105" value="" style="endArrow=open;strokeColor=#000000;endFill=1;rounded=0;entryX=0.5;entryY=0;entryDx=0;entryDy=0;exitX=0.5;exitY=1;exitDx=0;exitDy=0;" parent="3" source="Z2fq6VVGMIXrVIdvkk49-65" target="Z2fq6VVGMIXrVIdvkk49-49" edge="1">
          <mxGeometry relative="1" as="geometry">
            <mxPoint x="440.5" y="716" as="sourcePoint" />
            <mxPoint x="440.5" y="740" as="targetPoint" />
          </mxGeometry>
        </mxCell>
        <mxCell id="Z2fq6VVGMIXrVIdvkk49-117" value="" style="endArrow=open;strokeColor=#000000;endFill=1;rounded=0;entryX=0.5;entryY=0;entryDx=0;entryDy=0;exitX=0.5;exitY=1;exitDx=0;exitDy=0;" parent="3" source="Z2fq6VVGMIXrVIdvkk49-81" target="Z2fq6VVGMIXrVIdvkk49-82" edge="1">
          <mxGeometry relative="1" as="geometry">
            <mxPoint x="155" y="778" as="sourcePoint" />
            <mxPoint x="155" y="800" as="targetPoint" />
          </mxGeometry>
        </mxCell>
        <mxCell id="Z2fq6VVGMIXrVIdvkk49-119" value="" style="endArrow=open;strokeColor=#000000;endFill=1;rounded=0;entryX=0.5;entryY=0;entryDx=0;entryDy=0;exitX=0.5;exitY=1;exitDx=0;exitDy=0;" parent="3" source="Z2fq6VVGMIXrVIdvkk49-76" target="Z2fq6VVGMIXrVIdvkk49-81" edge="1">
          <mxGeometry relative="1" as="geometry">
            <mxPoint x="161" y="1148" as="sourcePoint" />
            <mxPoint x="161" y="1170" as="targetPoint" />
          </mxGeometry>
        </mxCell>
        <mxCell id="4" value="Distribuidor" style="swimlane;whiteSpace=wrap" parent="1" vertex="1">
          <mxGeometry x="725" y="120" width="305.5" height="1230" as="geometry" />
        </mxCell>
        <mxCell id="33" value="Recibe solicitud&#xa;del pedido" style="rounded=1;strokeColor=#000000;" parent="4" vertex="1">
          <mxGeometry x="90" y="450" width="110" height="38" as="geometry" />
        </mxCell>
        <mxCell id="Z2fq6VVGMIXrVIdvkk49-43" value="Analiza viabilidad" style="rhombus;whiteSpace=wrap;html=1;strokeColor=#000000;" parent="4" vertex="1">
          <mxGeometry x="79.75" y="510" width="130.5" height="58" as="geometry" />
        </mxCell>
        <mxCell id="Z2fq6VVGMIXrVIdvkk49-47" value="Acepta Pedido" style="rounded=1;whiteSpace=wrap;html=1;strokeColor=#000000;" parent="4" vertex="1">
          <mxGeometry x="190" y="582" width="90" height="28" as="geometry" />
        </mxCell>
        <mxCell id="Z2fq6VVGMIXrVIdvkk49-48" value="Rechaza Pedido" style="rounded=1;whiteSpace=wrap;html=1;strokeColor=#000000;" parent="4" vertex="1">
          <mxGeometry x="5.5" y="580" width="94.5" height="30" as="geometry" />
        </mxCell>
        <mxCell id="Z2fq6VVGMIXrVIdvkk49-58" value="" style="endArrow=open;strokeColor=#000000;endFill=1;rounded=0;entryX=0.5;entryY=0;entryDx=0;entryDy=0;exitX=0.5;exitY=1;exitDx=0;exitDy=0;" parent="4" source="33" target="Z2fq6VVGMIXrVIdvkk49-43" edge="1">
          <mxGeometry relative="1" as="geometry">
            <mxPoint x="-369.5" y="428" as="sourcePoint" />
            <mxPoint x="-176.5" y="432" as="targetPoint" />
          </mxGeometry>
        </mxCell>
        <mxCell id="Z2fq6VVGMIXrVIdvkk49-60" value="" style="endArrow=open;strokeColor=#000000;endFill=1;rounded=0;entryX=0.5;entryY=0;entryDx=0;entryDy=0;exitX=1;exitY=0.5;exitDx=0;exitDy=0;" parent="4" source="Z2fq6VVGMIXrVIdvkk49-43" target="Z2fq6VVGMIXrVIdvkk49-47" edge="1">
          <mxGeometry relative="1" as="geometry">
            <mxPoint x="155" y="502" as="sourcePoint" />
            <mxPoint x="155" y="532" as="targetPoint" />
            <Array as="points">
              <mxPoint x="235.5" y="540" />
            </Array>
          </mxGeometry>
        </mxCell>
        <mxCell id="Z2fq6VVGMIXrVIdvkk49-61" value="" style="endArrow=open;strokeColor=#000000;endFill=1;rounded=0;entryX=0.5;entryY=0;entryDx=0;entryDy=0;exitX=0;exitY=0.5;exitDx=0;exitDy=0;" parent="4" source="Z2fq6VVGMIXrVIdvkk49-43" target="Z2fq6VVGMIXrVIdvkk49-48" edge="1">
          <mxGeometry relative="1" as="geometry">
            <mxPoint x="220" y="561" as="sourcePoint" />
            <mxPoint x="228" y="622" as="targetPoint" />
            <Array as="points">
              <mxPoint x="55.5" y="540" />
            </Array>
          </mxGeometry>
        </mxCell>
        <mxCell id="Z2fq6VVGMIXrVIdvkk49-70" value="Procede con&#xa;la Entrega" style="rounded=1;strokeColor=#000000;" parent="4" vertex="1">
          <mxGeometry x="88.75" y="740" width="124.5" height="38" as="geometry" />
        </mxCell>
        <mxCell id="Z2fq6VVGMIXrVIdvkk49-73" value="Realiza Entrega" style="rounded=1;strokeColor=#000000;" parent="4" vertex="1">
          <mxGeometry x="90.88" y="830" width="120.25" height="28" as="geometry" />
        </mxCell>
        <mxCell id="Z2fq6VVGMIXrVIdvkk49-74" value="Notifica al sistema" style="rounded=1;strokeColor=#000000;" parent="4" vertex="1">
          <mxGeometry x="90.88" y="880" width="120.25" height="28" as="geometry" />
        </mxCell>
        <mxCell id="Z2fq6VVGMIXrVIdvkk49-79" value="Recibe Pago" style="rounded=1;strokeColor=#000000;" parent="4" vertex="1">
          <mxGeometry x="79.75" y="985" width="124.5" height="38" as="geometry" />
        </mxCell>
        <mxCell id="Z2fq6VVGMIXrVIdvkk49-80" value="Solicita Facturazion" style="rounded=1;strokeColor=#000000;" parent="4" vertex="1">
          <mxGeometry x="79.75" y="1040" width="124.5" height="38" as="geometry" />
        </mxCell>
        <mxCell id="Z2fq6VVGMIXrVIdvkk49-45" value="Espera confirmacion" style="rounded=1;" parent="4" vertex="1">
          <mxGeometry x="174.5" y="630" width="121" height="30" as="geometry" />
        </mxCell>
        <mxCell id="Z2fq6VVGMIXrVIdvkk49-63" value="" style="endArrow=open;strokeColor=#000000;endFill=1;rounded=0;entryX=0.5;entryY=0;entryDx=0;entryDy=0;exitX=0.5;exitY=1;exitDx=0;exitDy=0;" parent="4" source="Z2fq6VVGMIXrVIdvkk49-47" target="Z2fq6VVGMIXrVIdvkk49-45" edge="1">
          <mxGeometry relative="1" as="geometry">
            <mxPoint x="220" y="499" as="sourcePoint" />
            <mxPoint x="228" y="560" as="targetPoint" />
            <Array as="points" />
          </mxGeometry>
        </mxCell>
        <mxCell id="Z2fq6VVGMIXrVIdvkk49-102" value="Recibe confirmación" style="rounded=1;strokeColor=#000000;" parent="4" vertex="1">
          <mxGeometry x="79.75" y="686" width="142.5" height="30" as="geometry" />
        </mxCell>
        <mxCell id="Z2fq6VVGMIXrVIdvkk49-72" value="" style="endArrow=open;strokeColor=#000000;endFill=1;rounded=0;entryX=0.5;entryY=0;entryDx=0;entryDy=0;exitX=0.5;exitY=1;exitDx=0;exitDy=0;" parent="4" source="Z2fq6VVGMIXrVIdvkk49-102" target="Z2fq6VVGMIXrVIdvkk49-70" edge="1">
          <mxGeometry relative="1" as="geometry">
            <mxPoint x="-34.5" y="838" as="sourcePoint" />
            <mxPoint x="138.5" y="853" as="targetPoint" />
          </mxGeometry>
        </mxCell>
        <mxCell id="Z2fq6VVGMIXrVIdvkk49-106" value="" style="endArrow=open;strokeColor=#000000;endFill=1;rounded=0;entryX=0.5;entryY=0;entryDx=0;entryDy=0;exitX=0.5;exitY=1;exitDx=0;exitDy=0;" parent="4" source="Z2fq6VVGMIXrVIdvkk49-70" target="Z2fq6VVGMIXrVIdvkk49-73" edge="1">
          <mxGeometry relative="1" as="geometry">
            <mxPoint x="161" y="726" as="sourcePoint" />
            <mxPoint x="161" y="750" as="targetPoint" />
          </mxGeometry>
        </mxCell>
        <mxCell id="Z2fq6VVGMIXrVIdvkk49-107" value="" style="endArrow=open;strokeColor=#000000;endFill=1;rounded=0;entryX=0.5;entryY=0;entryDx=0;entryDy=0;exitX=0.5;exitY=1;exitDx=0;exitDy=0;" parent="4" source="Z2fq6VVGMIXrVIdvkk49-73" target="Z2fq6VVGMIXrVIdvkk49-74" edge="1">
          <mxGeometry relative="1" as="geometry">
            <mxPoint x="171" y="736" as="sourcePoint" />
            <mxPoint x="171" y="760" as="targetPoint" />
          </mxGeometry>
        </mxCell>
        <mxCell id="Z2fq6VVGMIXrVIdvkk49-115" value="" style="endArrow=open;strokeColor=#000000;endFill=1;rounded=0;entryX=0.5;entryY=0;entryDx=0;entryDy=0;exitX=0.5;exitY=1;exitDx=0;exitDy=0;" parent="4" source="Z2fq6VVGMIXrVIdvkk49-79" target="Z2fq6VVGMIXrVIdvkk49-80" edge="1">
          <mxGeometry relative="1" as="geometry">
            <mxPoint x="161" y="868" as="sourcePoint" />
            <mxPoint x="161" y="890" as="targetPoint" />
          </mxGeometry>
        </mxCell>
        <mxCell id="20" value="" style="endArrow=open;strokeColor=#000000;endFill=1;rounded=0;entryX=0;entryY=0.5;entryDx=0;entryDy=0;" parent="1" source="10" target="16" edge="1">
          <mxGeometry relative="1" as="geometry">
            <mxPoint x="464.5" y="472.72916666666674" as="targetPoint" />
          </mxGeometry>
        </mxCell>
        <mxCell id="Z2fq6VVGMIXrVIdvkk49-50" value="" style="edgeStyle=elbowEdgeStyle;elbow=horizontal;verticalAlign=bottom;endArrow=open;endSize=8;strokeColor=#000000;endFill=1;rounded=0;exitX=1;exitY=0.5;exitDx=0;exitDy=0;entryX=0;entryY=0.5;entryDx=0;entryDy=0;" parent="1" source="7" target="15" edge="1">
          <mxGeometry x="100" y="40" as="geometry">
            <mxPoint x="290.5" y="230" as="targetPoint" />
            <mxPoint x="289.5" y="208" as="sourcePoint" />
          </mxGeometry>
        </mxCell>
        <mxCell id="Z2fq6VVGMIXrVIdvkk49-54" value="" style="edgeStyle=elbowEdgeStyle;elbow=horizontal;verticalAlign=bottom;endArrow=open;endSize=8;strokeColor=#000000;endFill=1;rounded=0;exitX=0;exitY=0.5;exitDx=0;exitDy=0;entryX=1;entryY=0.5;entryDx=0;entryDy=0;" parent="1" source="Z2fq6VVGMIXrVIdvkk49-41" target="Z2fq6VVGMIXrVIdvkk49-42" edge="1">
          <mxGeometry x="100" y="40" as="geometry">
            <mxPoint x="541" y="255" as="targetPoint" />
            <mxPoint x="345" y="255" as="sourcePoint" />
          </mxGeometry>
        </mxCell>
        <mxCell id="Z2fq6VVGMIXrVIdvkk49-67" value="" style="edgeStyle=elbowEdgeStyle;elbow=horizontal;verticalAlign=bottom;endArrow=open;endSize=8;strokeColor=#000000;endFill=1;rounded=0;exitX=0;exitY=0.5;exitDx=0;exitDy=0;entryX=1;entryY=0.5;entryDx=0;entryDy=0;" parent="1" source="Z2fq6VVGMIXrVIdvkk49-49" target="Z2fq6VVGMIXrVIdvkk49-64" edge="1">
          <mxGeometry x="100" y="40" as="geometry">
            <mxPoint x="320" y="700" as="targetPoint" />
            <mxPoint x="502" y="700" as="sourcePoint" />
            <Array as="points">
              <mxPoint x="450" y="910" />
            </Array>
          </mxGeometry>
        </mxCell>
        <mxCell id="Z2fq6VVGMIXrVIdvkk49-91" value="" style="edgeStyle=elbowEdgeStyle;elbow=horizontal;verticalAlign=bottom;endArrow=open;endSize=8;strokeColor=#000000;endFill=1;rounded=0;exitX=0;exitY=0.5;exitDx=0;exitDy=0;entryX=1;entryY=0.5;entryDx=0;entryDy=0;" parent="1" source="Z2fq6VVGMIXrVIdvkk49-88" target="Z2fq6VVGMIXrVIdvkk49-90" edge="1">
          <mxGeometry x="100" y="40" as="geometry">
            <mxPoint x="289.5" y="520" as="targetPoint" />
            <mxPoint x="471.5" y="520" as="sourcePoint" />
            <Array as="points">
              <mxPoint x="440" y="760" />
            </Array>
          </mxGeometry>
        </mxCell>
        <mxCell id="Z2fq6VVGMIXrVIdvkk49-93" value="" style="endArrow=open;strokeColor=#000000;endFill=1;rounded=0;entryX=0;entryY=0.5;entryDx=0;entryDy=0;exitX=1;exitY=0.5;exitDx=0;exitDy=0;" parent="1" source="Z2fq6VVGMIXrVIdvkk49-92" target="33" edge="1">
          <mxGeometry relative="1" as="geometry">
            <mxPoint x="738.75" y="510" as="sourcePoint" />
            <mxPoint x="931.75" y="510" as="targetPoint" />
          </mxGeometry>
        </mxCell>
        <mxCell id="Z2fq6VVGMIXrVIdvkk49-94" value="" style="endArrow=open;strokeColor=#000000;endFill=1;rounded=0;entryX=0.5;entryY=1;entryDx=0;entryDy=0;exitX=0;exitY=0.5;exitDx=0;exitDy=0;" parent="1" source="Z2fq6VVGMIXrVIdvkk49-48" target="Z2fq6VVGMIXrVIdvkk49-92" edge="1">
          <mxGeometry relative="1" as="geometry">
            <mxPoint x="660" y="590" as="sourcePoint" />
            <mxPoint x="825" y="589" as="targetPoint" />
            <Array as="points">
              <mxPoint x="584" y="705" />
            </Array>
          </mxGeometry>
        </mxCell>
        <mxCell id="Z2fq6VVGMIXrVIdvkk49-95" value="" style="endArrow=open;strokeColor=#000000;endFill=1;rounded=0;entryX=1;entryY=0.5;entryDx=0;entryDy=0;exitX=0;exitY=0.5;exitDx=0;exitDy=0;" parent="1" source="Z2fq6VVGMIXrVIdvkk49-45" target="Z2fq6VVGMIXrVIdvkk49-88" edge="1">
          <mxGeometry relative="1" as="geometry">
            <mxPoint x="660" y="590" as="sourcePoint" />
            <mxPoint x="825" y="589" as="targetPoint" />
          </mxGeometry>
        </mxCell>
        <mxCell id="Z2fq6VVGMIXrVIdvkk49-101" value="" style="edgeStyle=elbowEdgeStyle;elbow=horizontal;verticalAlign=bottom;endArrow=open;endSize=8;strokeColor=#000000;endFill=1;rounded=0;exitX=1;exitY=0.5;exitDx=0;exitDy=0;entryX=0;entryY=0.5;entryDx=0;entryDy=0;" parent="1" source="Z2fq6VVGMIXrVIdvkk49-96" target="Z2fq6VVGMIXrVIdvkk49-100" edge="1">
          <mxGeometry x="100" y="40" as="geometry">
            <mxPoint x="382" y="765" as="targetPoint" />
            <mxPoint x="526" y="765" as="sourcePoint" />
            <Array as="points">
              <mxPoint x="440" y="800" />
            </Array>
          </mxGeometry>
        </mxCell>
        <mxCell id="Z2fq6VVGMIXrVIdvkk49-103" value="" style="edgeStyle=elbowEdgeStyle;elbow=horizontal;verticalAlign=bottom;endArrow=open;endSize=8;strokeColor=#000000;endFill=1;rounded=0;exitX=1;exitY=0.5;exitDx=0;exitDy=0;entryX=0;entryY=0.5;entryDx=0;entryDy=0;" parent="1" source="Z2fq6VVGMIXrVIdvkk49-100" target="Z2fq6VVGMIXrVIdvkk49-102" edge="1">
          <mxGeometry x="100" y="40" as="geometry">
            <mxPoint x="519" y="821" as="targetPoint" />
            <mxPoint x="390" y="821" as="sourcePoint" />
            <Array as="points">
              <mxPoint x="730" y="811" />
            </Array>
          </mxGeometry>
        </mxCell>
        <mxCell id="Z2fq6VVGMIXrVIdvkk49-104" value="" style="endArrow=open;strokeColor=#000000;endFill=1;rounded=0;entryX=1;entryY=0.5;entryDx=0;entryDy=0;exitX=0;exitY=0.5;exitDx=0;exitDy=0;" parent="1" source="Z2fq6VVGMIXrVIdvkk49-70" target="Z2fq6VVGMIXrVIdvkk49-65" edge="1">
          <mxGeometry relative="1" as="geometry">
            <mxPoint x="909" y="765" as="sourcePoint" />
            <mxPoint x="668" y="765" as="targetPoint" />
          </mxGeometry>
        </mxCell>
        <mxCell id="Z2fq6VVGMIXrVIdvkk49-108" value="" style="endArrow=open;strokeColor=#000000;endFill=1;rounded=0;entryX=1;entryY=0.5;entryDx=0;entryDy=0;exitX=0;exitY=0.5;exitDx=0;exitDy=0;" parent="1" source="Z2fq6VVGMIXrVIdvkk49-74" target="Z2fq6VVGMIXrVIdvkk49-75" edge="1">
          <mxGeometry relative="1" as="geometry">
            <mxPoint x="823" y="879" as="sourcePoint" />
            <mxPoint x="662" y="879" as="targetPoint" />
          </mxGeometry>
        </mxCell>
        <mxCell id="Z2fq6VVGMIXrVIdvkk49-110" value="" style="edgeStyle=elbowEdgeStyle;elbow=horizontal;verticalAlign=bottom;endArrow=open;endSize=8;strokeColor=#000000;endFill=1;rounded=0;exitX=0;exitY=0.5;exitDx=0;exitDy=0;entryX=1;entryY=0.5;entryDx=0;entryDy=0;" parent="1" source="Z2fq6VVGMIXrVIdvkk49-75" target="Z2fq6VVGMIXrVIdvkk49-111" edge="1">
          <mxGeometry x="100" y="40" as="geometry">
            <mxPoint x="387" y="934" as="targetPoint" />
            <mxPoint x="542" y="934" as="sourcePoint" />
            <Array as="points">
              <mxPoint x="450" y="1010" />
            </Array>
          </mxGeometry>
        </mxCell>
        <mxCell id="Z2fq6VVGMIXrVIdvkk49-114" value="" style="edgeStyle=elbowEdgeStyle;elbow=horizontal;verticalAlign=bottom;endArrow=open;endSize=8;strokeColor=#000000;endFill=1;rounded=0;exitX=1;exitY=0.5;exitDx=0;exitDy=0;entryX=0;entryY=0.5;entryDx=0;entryDy=0;" parent="1" source="Z2fq6VVGMIXrVIdvkk49-78" target="Z2fq6VVGMIXrVIdvkk49-79" edge="1">
          <mxGeometry x="100" y="40" as="geometry">
            <mxPoint x="395" y="1015" as="targetPoint" />
            <mxPoint x="542" y="1015" as="sourcePoint" />
            <Array as="points">
              <mxPoint x="590" y="1120" />
            </Array>
          </mxGeometry>
        </mxCell>
        <mxCell id="Z2fq6VVGMIXrVIdvkk49-116" value="" style="endArrow=open;strokeColor=#000000;endFill=1;rounded=0;entryX=1;entryY=0.5;entryDx=0;entryDy=0;exitX=0;exitY=0.5;exitDx=0;exitDy=0;" parent="1" source="Z2fq6VVGMIXrVIdvkk49-80" target="Z2fq6VVGMIXrVIdvkk49-76" edge="1">
          <mxGeometry relative="1" as="geometry">
            <mxPoint x="825" y="1014" as="sourcePoint" />
            <mxPoint x="664" y="1015" as="targetPoint" />
          </mxGeometry>
        </mxCell>
        <mxCell id="Z2fq6VVGMIXrVIdvkk49-120" value="" style="endArrow=open;strokeColor=#000000;endFill=1;rounded=0;entryX=1;entryY=0.5;entryDx=0;entryDy=0;exitX=0;exitY=0.5;exitDx=0;exitDy=0;" parent="1" source="Z2fq6VVGMIXrVIdvkk49-82" target="Z2fq6VVGMIXrVIdvkk49-83" edge="1">
          <mxGeometry relative="1" as="geometry">
            <mxPoint x="814" y="1179" as="sourcePoint" />
            <mxPoint x="667" y="1179" as="targetPoint" />
            <Array as="points">
              <mxPoint x="470" y="1290" />
            </Array>
          </mxGeometry>
        </mxCell>
      </root>
    </mxGraphModel>
  </diagram>
</mxfile>
